<svg width="24" height="24" viewBox="0 0 24 24" fill="none" xmlns="http://www.w3.org/2000/svg">
<path fill-rule="evenodd" clip-rule="evenodd" d="M14.6339 2.52131C14.5012 2.65602 14.0347 3.34389 14.0347 4.19607C14.0347 4.40009 14.0384 9.28525 14.0347 9.46046C14.0275 9.83217 13.7945 10.3617 13.6025 10.5483C13.4673 10.6802 12.6362 11.4169 12.5624 11.4942L13.0338 11.5015C13.1871 11.3585 14.788 9.97519 14.9555 9.78908C15.1734 9.54768 15.6926 8.93612 15.6926 7.97571L15.6953 2.91741C15.6953 2.15842 16.0582 1.7374 16.2449 1.53415C16.4369 1.32546 17.0677 0.81254 17.1795 0.696511L16.6851 0.682235C16.5655 0.798783 14.7984 2.35336 14.6339 2.52131ZM10.6702 21.664L12.6306 23.3333H13.9434C15.278 23.3333 16.4981 22.7765 17.3031 21.9921C18.1086 21.2066 18.4053 20.152 18.4053 19.1654V16.4289C18.4053 15.5093 17.8122 14.9743 17.6479 14.8139C17.5579 14.7267 16.987 14.2018 16.987 14.2018V16.3012C16.987 16.3012 17.6163 16.9346 17.7406 17.0631C18.3222 17.6653 18.3158 18.7617 16.4747 20.5112C16.1522 20.8173 15.2322 21.664 13.9663 21.664H10.6702Z" fill="#C23C40"/>
<path fill-rule="evenodd" clip-rule="evenodd" d="M16.123 10.4333C15.9047 10.6586 15.6951 11.2097 15.6951 11.6954V12.7316H16.7733C17.1919 12.7316 17.7452 12.3596 17.865 12.1629C17.8722 12.1483 17.865 11.1352 17.865 11.1352C17.865 11.1352 18.1417 11.5215 18.4408 11.7255C18.5531 11.5871 19.5344 10.4271 20.3561 10.4206C21.728 10.4097 21.4181 12.0972 20.8576 12.6371C20.676 12.8108 19.8656 13.5355 19.6151 13.7678C18.9669 14.3692 17.8576 14.0814 17.8576 12.5273C17.8576 12.5273 16.667 13.6292 16.4886 13.7751C16.3091 13.921 15.6951 14.5551 15.6951 14.5551V17.2853C15.6951 18.5946 15.2531 19.0338 14.8869 19.4275C14.7444 19.5804 13.232 20.9255 13.0296 21.0714L12.5356 21.0823C12.5356 21.0823 13.4207 20.2979 13.5981 20.1182C13.7999 19.914 14.0351 19.4992 14.0351 18.8087C14.0351 18.6338 14.0127 14.5185 14.0127 14.5185H7.13242C4.73931 14.5185 4.22778 11.9295 4.21287 11.237C4.20914 11.033 4.21287 8.9652 4.21287 8.64436C4.21287 8.21892 3.93353 7.50095 3.48751 7.27953H4.16254C4.24029 7.31146 4.66449 7.4781 4.66449 9.06539C4.66449 9.06539 4.63573 10.9125 4.63573 11.0109C4.63573 11.8156 5.29212 12.7389 6.24063 12.7389L14.0281 12.7316C14.0353 12.5273 14.2444 11.753 14.6185 11.3437C14.8313 11.1129 16.5011 9.62321 16.6921 9.47993L17.1866 9.47448C17.1112 9.54145 16.3036 10.2477 16.123 10.4333ZM18.6799 11.9882C18.6799 11.9882 19.1307 12.5714 19.3456 12.7391C20.1844 13.3951 20.5825 12.6906 20.0196 11.937C19.7969 11.6401 18.9342 11.7257 18.6799 11.9882Z" fill="#C23C40"/>
<path fill-rule="evenodd" clip-rule="evenodd" d="M10.3296 16.8788C10.3296 17.2453 9.12843 18.2182 9.05813 18.2867C8.97132 17.8919 8.66829 17.4558 7.77304 16.5826L9.08742 15.3014C9.96803 16.1611 10.3296 16.3441 10.3296 16.8788ZM12.609 2.19216C12.8727 2.44914 13.4401 3.14635 13.0995 3.47887C12.7989 3.77218 12.3324 4.23734 12.3324 4.23734C12.3089 4.06965 11.8722 3.66602 11.8722 3.66602C11.8722 3.66602 11.876 4.9034 11.8722 5.05655C11.8573 5.61515 11.6416 5.77452 11.6416 5.77452C11.6416 5.77452 12.7006 6.7988 12.7006 8.11457C12.7006 8.7526 12.7033 9.33949 12.7033 9.46616C12.7033 9.73586 12.6335 9.94456 12.4408 10.1514C12.3457 10.2542 11.3639 11.2157 11.2145 11.3468C10.9301 11.5965 10.6311 11.6383 10.4069 11.6383H6.75636C6.18145 11.6383 5.58976 11.2009 5.58976 10.7635C5.58976 10.6542 5.59722 9.44384 5.59722 9.44384C5.78442 9.65539 5.97481 9.90251 6.43495 9.89602C6.79417 9.89056 7.17176 9.61542 7.27269 9.51704C7.37734 9.41399 10.0341 6.70665 10.0341 6.70665C10.0341 6.70665 8.78971 5.58218 7.97009 5.04798C7.57013 4.78659 7.03889 5.11651 6.95874 5.45992C6.70736 6.53689 6.95874 8.15247 6.95874 8.15247L5.95085 7.17232C5.54529 6.77596 5.55994 5.87939 6.04351 5.40801C6.1202 5.33299 6.85675 4.52131 7.79248 4.52131H9.24986C10.2277 4.52131 11.2971 5.47082 11.2971 5.47082C11.2971 5.47082 11.4542 5.30314 11.4542 5.14091C11.4542 4.65239 11.4355 3.3348 11.4355 3.3348C10.6998 2.61786 10.5997 1.87782 10.9522 1.53415C11.6105 0.892744 11.8496 0.666656 11.8496 0.666656C11.8496 0.666656 11.8416 1.44485 12.609 2.19216ZM8.0292 9.34183C7.66945 9.70913 7.60688 9.80101 7.27029 9.99777H11.3815C12.4956 9.99777 12.2741 9.3234 12.0743 8.98362C11.6645 8.28641 10.3709 6.99088 10.3709 6.99088C10.3709 6.99088 8.10403 9.26422 8.0292 9.34183Z" fill="#C23C40"/>
<path fill-rule="evenodd" clip-rule="evenodd" d="M3.34142 12.9896H2.66666C2.66666 12.9896 3.39175 13.3779 3.39175 14.3793V17.5778C3.39175 19.6593 5.15296 21.5838 7.29283 21.5838H9.08014C10.1533 21.5838 10.5298 21.3304 11.1785 20.7692C11.4163 20.5631 11.7254 20.2249 11.8386 20.1021C12.2127 19.6941 12.6105 19.3642 12.6105 18.2924V17.2455C12.6105 16.3407 12.0732 15.964 11.8133 15.711C11.6469 15.5487 11.1896 15.1228 11.1896 15.1228V17.2671C11.1896 17.2671 11.6402 17.7348 11.8386 17.8869C12.7666 18.6013 12.0279 19.8415 11.1673 19.8415C10.9953 19.8415 7.48136 19.8426 7.24197 19.8485C5.79657 19.8836 3.84284 18.6267 3.84284 16.5136V14.7757C3.8431 12.9896 3.34142 12.9896 3.34142 12.9896Z" fill="#C23C40"/>
</svg>
